<?xml version="1.0" standalone="no"?>
<!DOCTYPE svg PUBLIC "-//W3C//DTD SVG 20010904//EN"
 "http://www.w3.org/TR/2001/REC-SVG-20010904/DTD/svg10.dtd">
<svg version="1.0" xmlns="http://www.w3.org/2000/svg"
 width="1024.000000pt" height="1024.000000pt" viewBox="0 0 1024.000000 1024.000000"
 preserveAspectRatio="xMidYMid meet">
<metadata>
Created by potrace 1.14, written by Peter Selinger 2001-2017
</metadata>
<g transform="translate(0.000000,1024.000000) scale(0.100000,-0.100000)"
fill="#000000" stroke="none">
<path d="M4819 10236 c-2 -2 -47 -7 -99 -10 -52 -4 -108 -9 -125 -11 -16 -2
-48 -6 -70 -9 -69 -8 -200 -26 -225 -31 -13 -3 -42 -7 -65 -10 -22 -3 -47 -8
-55 -10 -8 -2 -31 -7 -50 -10 -19 -3 -51 -10 -70 -15 -19 -5 -48 -12 -65 -14
-70 -13 -355 -88 -400 -106 -11 -4 -51 -18 -90 -30 -38 -11 -79 -25 -90 -30
-11 -4 -58 -22 -105 -40 -258 -97 -528 -224 -735 -347 -22 -13 -55 -30 -72
-38 -18 -9 -33 -20 -33 -25 0 -6 -6 -10 -13 -10 -8 0 -36 -16 -63 -35 -27 -19
-54 -35 -61 -35 -6 0 -13 -4 -15 -8 -1 -4 -54 -42 -115 -85 -96 -65 -315 -231
-363 -274 -21 -18 -66 -58 -141 -123 -186 -162 -481 -479 -621 -668 -24 -31
-49 -63 -56 -70 -6 -8 -26 -35 -44 -60 -17 -26 -34 -49 -37 -52 -3 -3 -10 -12
-16 -21 -5 -9 -40 -61 -76 -115 -313 -470 -549 -1000 -690 -1554 -22 -85 -41
-164 -43 -175 -17 -84 -56 -299 -61 -340 -4 -27 -9 -61 -11 -75 -2 -14 -6 -50
-9 -80 -2 -30 -7 -69 -10 -86 -25 -148 -26 -829 -1 -1024 3 -25 8 -65 11 -90
3 -25 8 -65 11 -90 4 -43 7 -59 20 -132 3 -18 7 -44 9 -58 3 -25 62 -308 71
-342 2 -10 6 -26 8 -35 3 -10 9 -33 15 -50 5 -18 8 -33 5 -33 -3 0 0 -9 6 -21
6 -11 13 -30 16 -42 2 -12 20 -74 41 -137 20 -63 37 -118 37 -122 1 -3 4 -10
8 -14 5 -4 8 -16 8 -26 0 -10 4 -26 9 -36 5 -9 26 -60 46 -112 21 -52 42 -106
48 -120 6 -14 11 -27 12 -30 5 -16 29 -68 74 -164 28 -59 51 -110 51 -112 0
-2 13 -25 29 -53 16 -27 27 -51 25 -54 -2 -2 2 -10 11 -17 8 -7 15 -17 15 -22
0 -10 80 -151 122 -216 10 -15 21 -34 25 -42 3 -8 41 -67 82 -130 85 -128 81
-123 116 -166 14 -18 25 -35 25 -39 0 -3 6 -13 12 -20 17 -19 25 -29 83 -105
42 -54 105 -130 240 -289 28 -33 301 -307 356 -357 81 -74 293 -248 389 -320
142 -105 423 -291 480 -317 8 -4 31 -17 50 -28 19 -12 53 -31 75 -42 22 -12
42 -24 45 -27 17 -17 338 -166 492 -229 139 -56 405 -148 452 -157 16 -3 34
-8 40 -12 6 -3 16 -7 21 -8 6 -2 62 -16 125 -33 63 -16 126 -32 140 -35 14 -2
72 -14 130 -26 58 -12 116 -23 130 -26 71 -12 93 -15 128 -19 20 -3 53 -8 72
-11 19 -3 54 -7 78 -10 24 -2 60 -6 80 -9 153 -20 742 -28 902 -13 41 4 107
10 145 14 39 3 81 8 95 10 14 3 45 7 70 10 25 2 56 7 70 9 14 2 52 9 85 14 72
12 97 17 195 37 41 9 86 18 100 21 44 9 55 11 55 13 0 1 9 3 20 4 11 2 47 11
80 20 33 10 69 20 81 22 12 2 40 10 63 19 23 8 43 15 46 15 8 1 23 6 145 45
121 40 316 114 413 159 32 14 60 26 62 26 7 0 271 132 340 170 66 36 202 115
243 142 15 10 41 25 57 34 17 9 51 32 76 50 26 19 52 34 58 34 6 0 11 4 11 8
0 4 13 16 30 25 28 17 252 184 300 224 54 45 69 57 125 106 173 150 349 325
500 498 137 156 135 154 223 269 40 52 77 100 82 107 35 43 221 331 285 443
75 130 224 419 229 443 2 7 19 47 39 91 21 43 37 81 37 85 0 3 6 18 14 32 7
15 24 58 36 95 13 38 26 74 30 79 4 6 11 24 15 40 9 34 10 35 18 55 9 25 55
172 68 220 7 25 14 50 15 55 18 66 72 285 79 325 3 14 7 36 10 50 7 32 11 54
20 110 4 25 9 54 11 65 6 33 17 108 20 140 1 17 3 30 4 30 1 0 3 20 5 44 3 25
7 58 9 75 13 81 21 286 21 531 0 334 -12 504 -50 745 -3 14 -7 45 -10 70 -3
25 -8 56 -11 70 -3 14 -7 36 -10 50 -20 109 -31 156 -69 310 -24 96 -56 213
-71 260 -15 47 -28 87 -29 90 -4 23 -57 168 -97 270 -50 125 -68 167 -116 270
-14 30 -26 57 -27 60 -8 25 -48 100 -55 105 -6 4 -8 10 -5 15 3 5 -2 16 -11
24 -8 9 -12 16 -8 16 4 0 1 8 -7 18 -8 9 -23 35 -34 57 -11 22 -37 68 -57 103
-21 34 -38 64 -38 67 0 11 -182 289 -192 293 -5 2 -8 10 -8 18 0 8 -4 14 -10
14 -5 0 -10 5 -10 10 0 6 -17 32 -37 59 -21 26 -45 58 -53 71 -8 12 -19 28
-25 34 -5 6 -31 38 -57 71 -27 33 -52 65 -56 70 -120 150 -422 463 -552 575
-29 25 -72 62 -95 83 -24 21 -92 76 -151 122 -60 46 -113 88 -119 93 -22 18
-184 130 -240 166 -33 22 -79 52 -103 68 -24 15 -45 28 -46 28 -2 0 -33 17
-67 38 -296 179 -687 353 -1054 469 -94 29 -336 95 -400 109 -81 17 -227 45
-260 50 -22 3 -44 7 -50 8 -5 2 -32 6 -60 10 -27 4 -63 9 -80 12 -49 8 -96 13
-180 20 -44 3 -91 8 -105 11 -33 6 -695 15 -701 9z"/>
</g>
</svg>
